<svg xmlns="http://www.w3.org/2000/svg" viewBox="192.5 81.8 215.0 242.0" width="215" height="242">
  <style>
    .bg     { fill: #f0f0d8; }
    .card   { fill: #ececd5; stroke: #dedec7; stroke-width: 1; }
    polygon, polyline, path, ellipse, circle, rect.o { stroke: #3c3c36; stroke-width: 1; stroke-linejoin: round; }
    .t      { fill: #e5e5ce; }
    .l      { fill: #e9e9d1; }
    .r      { fill: #ececd4; }
    .bezel  { fill: #eaead3; }
    .screen { fill: #f2f2da; stroke: #4a4a43; }
    .dark   { fill: #f2f2da; }
    .hair   { fill: none; stroke: #4a4a43; stroke-width: 0.75; }
    .line   { fill: none; }
    .ft     { fill: #e5e5ce; stroke: #4a4a43; stroke-width: 0.75; }
    .scr    { fill: #35352f; font: 9px ui-monospace, Menlo, monospace; letter-spacing: 1px; stroke: none; }
    .lab    { fill: #43433c; font: 10px ui-monospace, Menlo, monospace; letter-spacing: 2px; text-transform: uppercase; stroke: none; }
  </style>
  <polygon class="l" points="197.1,246.2 323.4,319.1 323.4,305.6 206.5,238.2"/>
  <polygon class="r" points="402.9,273.2 323.4,319.1 323.4,305.6 393.5,265.1"/>
  <polygon class="t" points="276.6,197.7 393.5,265.1 323.4,305.6 206.5,238.2"/>
  <polygon class="t" points="276.6,200.3 365.5,251.7 323.4,275.9 234.5,224.7"/>
  <polygon class="l" points="234.5,238.2 323.4,289.4 323.4,275.9 234.5,224.7"/>
  <polygon class="r" points="365.5,265.1 323.4,289.4 323.4,275.9 365.5,251.7"/>
  <polygon class="dark" points="267.3,213.8 342.1,257.1 332.7,262.4 257.9,219.2"/>
  <polygon class="t" points="288.3,177.4 335.1,204.4 328.1,208.4 281.3,181.4"/>
  <polygon class="l" points="281.3,222.0 328.1,248.9 328.1,208.4 281.3,181.4"/>
  <polygon class="r" points="335.1,244.9 328.1,248.9 328.1,208.4 335.1,204.4"/>
  <polygon class="t" points="268.4,86.3 326.9,120.0 319.9,124.1 261.4,90.3"/>
  <polygon class="l" points="261.4,228.0 319.9,261.8 319.9,124.1 261.4,90.3"/>
  <polygon class="r" points="326.9,257.7 319.9,261.8 319.9,124.1 326.9,120.0"/>
  <polygon class="screen" points="264.9,224.7 316.4,254.3 316.4,127.5 264.9,97.8"/>
  <polyline class="hair" points="284.8,113.3 296.5,120.0"/>
  <polyline class="hair" points="324.6,164.6 324.6,178.1"/>
  <polyline class="hair" points="324.6,186.2 324.6,197.0"/>
  <g transform="matrix(1.1691 0.6750 0.0000 1.3500 264.9 97.8)">
  <polyline vector-effect="non-scaling-stroke" class="hair" points="4,8 40,8"/>
  <circle vector-effect="non-scaling-stroke" class="hair" cx="7" cy="4.5" r="1.6"/>
  <polyline vector-effect="non-scaling-stroke" class="hair" points="11,4.5 22,4.5"/>
  <rect vector-effect="non-scaling-stroke" class="hair" x="3" y="13" width="27" height="12" rx="3"/>
  <polyline vector-effect="non-scaling-stroke" class="hair" points="6,17.0 27,17.0"/>
  <polyline vector-effect="non-scaling-stroke" class="hair" points="6,20.5 22,20.5"/>
  <polyline vector-effect="non-scaling-stroke" class="hair" points="6,24.0 17,24.0"/>
  <rect vector-effect="non-scaling-stroke" class="ft" x="16" y="29" width="25" height="8.5" rx="3"/>
  <polyline vector-effect="non-scaling-stroke" class="hair" points="19,33.0 38,33.0"/>
  <polyline vector-effect="non-scaling-stroke" class="hair" points="19,36.5 29,36.5"/>
  <rect vector-effect="non-scaling-stroke" class="hair" x="3" y="42" width="30" height="15.5" rx="3"/>
  <polyline vector-effect="non-scaling-stroke" class="hair" points="6,46.0 30,46.0"/>
  <polyline vector-effect="non-scaling-stroke" class="hair" points="6,49.5 26,49.5"/>
  <polyline vector-effect="non-scaling-stroke" class="hair" points="6,53.0 29,53.0"/>
  <polyline vector-effect="non-scaling-stroke" class="hair" points="6,56.5 15,56.5"/>
  <rect vector-effect="non-scaling-stroke" class="ft" x="20" y="62" width="21" height="8.5" rx="3"/>
  <polyline vector-effect="non-scaling-stroke" class="hair" points="23,66.0 38,66.0"/>
  <polyline vector-effect="non-scaling-stroke" class="hair" points="23,69.5 31,69.5"/>
  <rect vector-effect="non-scaling-stroke" class="hair" x="3" y="80" width="38" height="8" rx="4"/>
  <polyline vector-effect="non-scaling-stroke" class="hair" points="7,84 20,84"/>
  <circle vector-effect="non-scaling-stroke" class="ft" cx="37" cy="84" r="2.4"/>
  </g>
  <polygon class="t" points="246.2,209.8 335.1,261.1 323.4,267.9 234.5,216.6"/>
  <polygon class="l" points="234.5,224.7 323.4,275.9 323.4,267.9 234.5,216.6"/>
  <polygon class="r" points="335.1,269.2 323.4,275.9 323.4,267.9 335.1,261.1"/>
</svg>